<svg width="202" height="26" viewBox="0 0 202 26" fill="none" xmlns="http://www.w3.org/2000/svg">
<path d="M15.352 20.104C15.808 20.104 16.144 20.284 16.36 20.644C16.6 20.98 16.72 21.352 16.72 21.76C16.72 22.264 16.636 22.624 16.468 22.84C16.324 23.032 16.036 23.236 15.604 23.452C14.596 23.932 13.348 24.316 11.86 24.604C10.372 24.892 8.776 25.036 7.072 25.036C4.936 25.036 3.364 24.676 2.356 23.956C1.372 23.236 0.76 22.372 0.52 21.364C0.304 20.332 0.196 18.988 0.196 17.332C0.196 15.556 0.268 13.816 0.412 12.112C0.556 10.384 0.808 8.188 1.168 5.524C1.336 4.372 1.792 3.544 2.536 3.04C3.28 2.512 4.096 2.248 4.984 2.248C5.728 2.248 6.94 2.224 8.62 2.176L11.752 2.14C13.048 2.14 13.984 2.176 14.56 2.248C15.28 2.392 15.808 2.56 16.144 2.752C16.504 2.92 16.684 3.22 16.684 3.652C16.684 4.132 16.516 4.6 16.18 5.056C15.868 5.512 15.388 5.74 14.74 5.74C13.996 5.74 12.928 5.692 11.536 5.596C10.144 5.5 9.1 5.452 8.404 5.452C7.804 5.452 7.216 5.488 6.64 5.56C5.968 5.608 5.488 5.692 5.2 5.812C4.912 5.932 4.744 6.136 4.696 6.424C4.36 8.896 4.192 10.72 4.192 11.896C4.744 11.968 5.284 12.004 5.812 12.004C6.484 12.004 7.204 11.968 7.972 11.896C8.74 11.824 9.232 11.776 9.448 11.752C10.72 11.632 11.812 11.572 12.724 11.572C13.252 11.572 13.648 11.668 13.912 11.86C14.2 12.052 14.344 12.316 14.344 12.652C14.344 13.18 14.2 13.588 13.912 13.876C13.648 14.164 13.168 14.38 12.472 14.524C11.632 14.692 10.588 14.824 9.34 14.92C8.116 15.016 6.916 15.064 5.74 15.064C5.332 15.064 4.768 15.04 4.048 14.992C3.976 16.456 3.94 17.812 3.94 19.06C3.94 20.764 5.068 21.616 7.324 21.616C8.524 21.616 9.52 21.532 10.312 21.364C11.104 21.196 12.016 20.956 13.048 20.644C14.008 20.284 14.776 20.104 15.352 20.104ZM34.1353 2.464C34.1353 2.704 34.0753 3.364 33.9553 4.444C33.6913 7.084 33.5593 9.76 33.5593 12.472C33.5593 14.848 33.5953 16.66 33.6673 17.908C33.7393 19.156 33.9193 20.116 34.2073 20.788C34.4953 21.436 34.9393 21.76 35.5393 21.76C36.6913 21.76 37.2673 22.144 37.2673 22.912C37.2673 23.416 37.0153 23.848 36.5113 24.208C36.0073 24.544 35.4553 24.712 34.8553 24.712C34.1353 24.712 33.4633 24.544 32.8393 24.208C32.2153 23.872 31.7233 23.356 31.3633 22.66C30.8593 23.404 30.1273 24.004 29.1673 24.46C28.2313 24.892 27.3193 25.108 26.4313 25.108C25.0633 25.108 23.8513 24.82 22.7953 24.244C21.7393 23.668 20.9233 22.888 20.3473 21.904C19.7713 20.896 19.4833 19.792 19.4833 18.592C19.4833 17.44 19.6153 16.336 19.8793 15.28C20.1673 14.2 20.5513 13.312 21.0313 12.616C21.6793 11.704 22.5433 10.984 23.6233 10.456C24.7273 9.904 25.8073 9.628 26.8633 9.628C27.5113 9.628 28.1233 9.76 28.6993 10.024C29.2753 10.264 29.7793 10.564 30.2113 10.924C30.2113 9.316 30.1993 8.308 30.1753 7.9V7.144C30.1753 4.912 30.3193 3.28 30.6073 2.248C30.8713 1.24 31.5073 0.735999 32.5153 0.735999C33.0673 0.735999 33.4753 0.855999 33.7393 1.096C34.0033 1.336 34.1353 1.792 34.1353 2.464ZM23.0473 18.52C23.0473 19.624 23.3593 20.512 23.9833 21.184C24.6313 21.856 25.3993 22.192 26.2873 22.192C27.5593 22.192 28.4953 21.796 29.0953 21.004C29.7193 20.212 30.0313 19.192 30.0313 17.944L29.9953 14.38C29.0593 13.348 28.0873 12.832 27.0793 12.832C26.3833 12.832 25.7233 13.012 25.0993 13.372C24.4993 13.708 24.0193 14.224 23.6593 14.92C23.2513 15.712 23.0473 16.912 23.0473 18.52ZM38.9506 12.868C38.7586 12.868 38.5786 12.796 38.4106 12.652C38.2666 12.484 38.1946 12.292 38.1946 12.076C38.1946 11.524 38.4346 11.008 38.9146 10.528C39.0586 10.456 39.3466 10.336 39.7786 10.168C40.2106 10 40.5946 9.916 40.9306 9.916C41.8426 9.916 42.5866 10.168 43.1626 10.672C43.7386 11.152 44.0266 11.848 44.0266 12.76C44.0266 13.024 43.9786 13.588 43.8826 14.452C43.7866 15.46 43.7386 16.24 43.7386 16.792C43.7386 18.472 43.9666 19.828 44.4226 20.86C44.5906 21.196 44.8546 21.46 45.2146 21.652C45.5746 21.844 45.8986 21.94 46.1866 21.94C46.8826 21.94 47.4466 21.82 47.8786 21.58C48.3106 21.34 48.7786 20.956 49.2826 20.428C49.7866 19.9 50.1106 19.3 50.2546 18.628C50.4226 17.956 50.5426 17.032 50.6146 15.856C50.6626 15.088 50.7106 14.524 50.7586 14.164C50.8786 13.012 50.9386 12.028 50.9386 11.212C50.9386 10.684 51.0826 10.252 51.3706 9.916C51.6586 9.556 52.0546 9.376 52.5586 9.376C52.8466 9.376 53.1706 9.472 53.5306 9.664C53.9146 9.832 54.1666 10.036 54.2866 10.276C54.4306 10.516 54.5026 10.912 54.5026 11.464C54.5026 11.752 54.4666 12.028 54.3946 12.292C54.2266 12.892 54.1426 13.612 54.1426 14.452L54.1786 16.324C54.1786 18.028 54.2986 19.288 54.5386 20.104C54.6586 20.488 54.8266 20.884 55.0426 21.292C55.2586 21.676 55.4626 22 55.6546 22.264C56.1346 22.792 56.4466 23.164 56.5906 23.38C56.7346 23.572 56.8066 23.764 56.8066 23.956C56.8066 24.244 56.6626 24.52 56.3746 24.784C56.1106 25.024 55.8226 25.144 55.5106 25.144C54.6226 25.144 53.8546 24.844 53.2066 24.244C52.5586 23.644 52.0786 22.864 51.7666 21.904C50.9506 22.84 50.1946 23.596 49.4986 24.172C49.0186 24.508 48.4306 24.76 47.7346 24.928C47.0386 25.072 46.3426 25.144 45.6466 25.144C44.7106 25.144 43.7626 24.76 42.8026 23.992C41.8426 23.224 41.1946 22.336 40.8586 21.328C40.8346 21.28 40.7626 21.088 40.6426 20.752C40.5466 20.416 40.4986 19.912 40.4986 19.24C40.4986 18.352 40.5466 17.236 40.6426 15.892C40.7146 15.028 40.7506 14.236 40.7506 13.516C40.7506 13.3 40.6666 13.12 40.4986 12.976C40.3546 12.832 40.1866 12.76 39.9946 12.76C39.8506 12.76 39.6826 12.784 39.4906 12.832C39.3226 12.856 39.1426 12.868 38.9506 12.868ZM70.729 14.092C70.369 14.092 70.057 14.008 69.793 13.84C69.553 13.648 69.301 13.396 69.037 13.084C68.773 12.772 68.485 12.568 68.173 12.472C67.885 12.376 67.549 12.328 67.165 12.328C66.469 12.328 65.785 12.544 65.113 12.976C64.465 13.384 63.925 13.96 63.493 14.704C63.085 15.448 62.881 16.276 62.881 17.188C62.881 18.196 63.073 19.036 63.457 19.708C63.865 20.38 64.501 20.968 65.365 21.472C65.677 21.64 66.037 21.772 66.445 21.868C66.877 21.964 67.249 22.012 67.561 22.012C68.305 22.012 69.265 21.688 70.441 21.04C70.537 20.992 70.717 20.908 70.981 20.788C71.269 20.644 71.485 20.572 71.629 20.572C71.893 20.572 72.193 20.704 72.529 20.968C72.865 21.208 73.033 21.508 73.033 21.868C73.033 22.588 72.721 23.2 72.097 23.704C71.497 24.208 70.741 24.58 69.829 24.82C68.917 25.06 68.017 25.18 67.129 25.18C65.713 25.18 64.393 24.856 63.169 24.208C61.945 23.56 60.973 22.66 60.253 21.508C59.533 20.356 59.173 19.06 59.173 17.62C59.173 16.06 59.521 14.656 60.217 13.408C60.913 12.136 61.849 11.14 63.025 10.42C64.225 9.676 65.521 9.304 66.913 9.304C68.257 9.304 69.493 9.568 70.621 10.096C71.773 10.624 72.349 11.428 72.349 12.508C72.349 13.564 71.809 14.092 70.729 14.092ZM89.5958 25.144C88.7798 25.144 88.1558 25.024 87.7238 24.784C87.2918 24.52 86.8238 24.04 86.3198 23.344C85.6958 23.896 84.7598 24.34 83.5118 24.676C82.2878 25.012 81.2318 25.18 80.3438 25.18C78.8798 25.18 77.6918 24.784 76.7798 23.992C75.8918 23.176 75.4478 21.988 75.4478 20.428C75.4478 19.756 75.6278 19.144 75.9878 18.592C76.3718 18.016 76.8638 17.512 77.4638 17.08C78.1358 16.624 78.9278 16.264 79.8398 16C80.7758 15.736 81.6278 15.604 82.3958 15.604C83.6918 15.604 84.8438 15.724 85.8518 15.964V15.928C85.8518 14.632 85.5278 13.744 84.8798 13.264C84.2558 12.76 83.2478 12.508 81.8558 12.508C80.9678 12.508 80.1998 12.904 79.5518 13.696C79.3118 14.008 78.8078 14.164 78.0398 14.164C77.6558 14.164 77.3678 14.008 77.1758 13.696C77.0078 13.36 76.9238 13.024 76.9238 12.688C76.9238 11.992 77.2118 11.392 77.7878 10.888C78.3878 10.384 79.1078 10.012 79.9478 9.772C80.7878 9.508 81.5678 9.376 82.2878 9.376C82.9838 9.376 83.8118 9.52 84.7718 9.808C85.7318 10.096 86.5118 10.48 87.1118 10.96C87.8318 11.584 88.3838 12.316 88.7678 13.156C89.1758 13.972 89.3798 14.872 89.3798 15.856C89.3798 16.168 89.3558 16.636 89.3078 17.26C89.2598 17.98 89.2358 18.568 89.2358 19.024C89.2358 19.24 89.2118 19.516 89.1638 19.852C89.1158 20.284 89.0918 20.644 89.0918 20.932C89.0918 21.244 89.1878 21.544 89.3798 21.832C89.5718 22.12 89.8358 22.36 90.1718 22.552C90.4838 22.72 90.6878 22.9 90.7838 23.092C90.8798 23.284 90.9278 23.5 90.9278 23.74C90.9278 23.98 90.7718 24.28 90.4598 24.64C90.1718 24.976 89.8838 25.144 89.5958 25.144ZM82.3958 18.268C81.4598 18.268 80.6318 18.448 79.9118 18.808C79.1918 19.168 78.8318 19.804 78.8318 20.716C78.8318 21.172 78.9878 21.556 79.2998 21.868C79.6358 22.18 79.9958 22.336 80.3798 22.336C81.4118 22.336 82.2758 22.228 82.9718 22.012C83.6678 21.796 84.5078 21.4 85.4918 20.824C85.6118 20.44 85.6838 19.9 85.7078 19.204C85.7078 18.94 85.7198 18.736 85.7438 18.592C84.4478 18.376 83.3318 18.268 82.3958 18.268ZM98.6386 23.56C98.5906 23.968 98.4226 24.328 98.1346 24.64C97.8466 24.952 97.4746 25.108 97.0186 25.108C96.2986 25.108 95.7706 24.976 95.4346 24.712C95.0986 24.424 94.9306 23.908 94.9306 23.164C94.9306 22.156 94.9906 21.052 95.1106 19.852C95.2066 18.46 95.2546 17.392 95.2546 16.648C95.2546 16.264 95.2306 15.784 95.1826 15.208C95.1346 14.68 95.1106 14.284 95.1106 14.02C95.0386 13.612 94.8706 13.288 94.6066 13.048C94.3666 12.808 93.9826 12.604 93.4546 12.436C93.2386 12.34 93.0586 12.184 92.9146 11.968C92.7706 11.728 92.6986 11.512 92.6986 11.32C92.6986 10.768 92.9146 10.348 93.3466 10.06C93.7786 9.772 94.3066 9.628 94.9306 9.628C95.6266 9.628 96.2266 9.868 96.7306 10.348C97.2346 10.828 97.6186 11.428 97.8826 12.148C98.4346 11.356 99.1066 10.72 99.8986 10.24C100.715 9.76 101.507 9.52 102.275 9.52C103.259 9.52 104.087 9.688 104.759 10.024C105.455 10.336 105.803 10.888 105.803 11.68C105.803 12.136 105.599 12.616 105.191 13.12C104.807 13.6 104.411 13.84 104.003 13.84C103.691 13.84 103.319 13.696 102.887 13.408C102.719 13.288 102.527 13.192 102.311 13.12C102.119 13.024 101.915 12.976 101.699 12.976C101.315 12.976 100.955 13.036 100.619 13.156C100.283 13.276 100.055 13.42 99.9346 13.588C99.5506 14.188 99.2626 14.728 99.0706 15.208C98.9026 15.688 98.8186 16.204 98.8186 16.756C98.8186 17.164 98.8066 17.488 98.7826 17.728L98.7466 19.78L98.7826 21.148C98.7826 22.156 98.7346 22.96 98.6386 23.56ZM107.655 16.864C107.655 16 107.811 15.196 108.123 14.452C108.435 13.684 108.891 12.892 109.491 12.076C110.091 11.26 110.919 10.624 111.975 10.168C113.031 9.688 114.183 9.448 115.431 9.448C116.391 9.448 117.315 9.652 118.203 10.06C119.115 10.444 119.931 10.924 120.651 11.5C120.747 11.668 120.915 11.98 121.155 12.436C121.395 12.868 121.563 13.264 121.659 13.624C121.779 13.984 121.839 14.356 121.839 14.74C121.839 16.348 121.251 17.428 120.075 17.98C118.899 18.508 117.411 18.772 115.611 18.772C113.811 18.772 112.347 18.652 111.219 18.412C111.267 18.868 111.387 19.324 111.579 19.78C111.771 20.236 111.999 20.584 112.263 20.824C112.743 21.28 113.211 21.58 113.667 21.724C114.147 21.844 114.783 21.904 115.575 21.904C116.775 21.904 117.711 21.676 118.383 21.22C119.007 20.812 119.487 20.608 119.823 20.608C120.279 20.608 120.627 20.752 120.867 21.04C121.107 21.304 121.227 21.652 121.227 22.084C121.227 22.996 120.639 23.74 119.463 24.316C118.311 24.892 117.003 25.18 115.539 25.18C114.387 25.18 113.247 24.976 112.119 24.568C110.991 24.16 110.091 23.584 109.419 22.84C108.963 22.072 108.555 21.136 108.195 20.032C107.835 18.928 107.655 17.872 107.655 16.864ZM115.575 12.4C115.047 12.4 114.495 12.496 113.919 12.688C113.367 12.856 112.935 13.12 112.623 13.48C112.239 13.888 111.951 14.26 111.759 14.596C111.591 14.932 111.483 15.352 111.435 15.856C111.699 15.856 111.951 15.868 112.191 15.892C112.431 15.916 112.659 15.94 112.875 15.964C113.931 16.06 114.723 16.108 115.251 16.108C116.307 16.108 117.111 15.952 117.663 15.64C118.239 15.328 118.527 14.908 118.527 14.38C118.527 13.876 118.203 13.42 117.555 13.012C116.931 12.604 116.271 12.4 115.575 12.4ZM140.07 12.832C141.822 13.048 143.118 13.612 143.958 14.524C144.822 15.412 145.254 16.516 145.254 17.836C145.254 19.156 144.762 20.404 143.778 21.58C142.818 22.756 141.582 23.668 140.07 24.316C139.398 24.58 138.51 24.772 137.406 24.892C136.326 25.012 135.21 25.072 134.058 25.072C132.138 25.072 130.17 24.892 128.154 24.532C127.794 24.46 127.41 24.28 127.002 23.992C126.618 23.704 126.426 23.284 126.426 22.732C126.402 20.524 126.318 17.452 126.174 13.516L126.138 11.536C126.042 8.464 125.994 6.052 125.994 4.3C125.994 3.988 126.174 3.628 126.534 3.22C126.918 2.788 127.374 2.548 127.902 2.5C128.214 2.5 128.514 2.488 128.802 2.464C131.514 2.2 133.326 2.068 134.238 2.068C136.038 2.068 137.622 2.248 138.99 2.608C140.382 2.944 141.534 3.568 142.446 4.48C142.782 4.864 143.058 5.356 143.274 5.956C143.49 6.532 143.598 7.096 143.598 7.648C143.622 8.824 143.31 9.904 142.662 10.888C142.038 11.872 141.174 12.52 140.07 12.832ZM134.454 5.128C133.638 5.128 132.786 5.176 131.898 5.272C131.034 5.368 130.302 5.488 129.702 5.632L129.918 12.436L131.214 12.4C133.302 12.184 134.838 12.004 135.822 11.86C136.446 11.716 137.058 11.44 137.658 11.032C138.258 10.6 138.75 10.156 139.134 9.7C139.542 9.22 139.746 8.86 139.746 8.62C139.746 8.26 139.674 7.9 139.53 7.54C139.386 7.156 139.23 6.88 139.062 6.712C138.414 6.088 137.754 5.668 137.082 5.452C136.41 5.236 135.534 5.128 134.454 5.128ZM130.026 21.904C131.25 22.072 132.414 22.156 133.518 22.156C135.942 22.156 137.85 21.844 139.242 21.22C140.658 20.572 141.366 19.348 141.366 17.548C141.366 16.828 140.826 16.228 139.746 15.748C138.666 15.268 137.502 15.028 136.254 15.028C135.414 15.028 134.346 15.124 133.05 15.316C132.018 15.46 131.01 15.556 130.026 15.604C130.074 17.044 130.098 17.956 130.098 18.34C130.098 19.084 130.086 19.648 130.062 20.032L130.026 21.904ZM162.84 13.444C163.032 13.78 163.188 14.272 163.308 14.92C163.428 15.544 163.488 16.108 163.488 16.612C163.488 17.548 163.284 18.88 162.876 20.608C161.22 23.632 158.772 25.144 155.532 25.144C154.332 25.144 153.108 24.748 151.86 23.956C150.612 23.164 149.748 22.252 149.268 21.22C148.62 19.156 148.296 17.848 148.296 17.296C148.296 16.336 148.5 15.316 148.908 14.236C149.34 13.156 149.88 12.22 150.528 11.428C150.936 10.876 151.668 10.408 152.724 10.024C153.78 9.616 154.74 9.412 155.604 9.412C157.284 9.412 158.712 9.736 159.888 10.384C161.064 11.008 162.048 12.028 162.84 13.444ZM159.708 19.24C159.828 18.928 159.888 18.124 159.888 16.828C159.888 16.132 159.756 15.448 159.492 14.776C159.252 14.104 158.892 13.528 158.412 13.048C158.364 13 158.232 12.928 158.016 12.832C157.8 12.712 157.5 12.604 157.116 12.508C156.756 12.388 156.336 12.328 155.856 12.328C154.512 12.328 153.528 12.868 152.904 13.948C152.28 15.028 151.968 16.252 151.968 17.62C151.968 17.86 152.028 18.316 152.148 18.988C152.292 19.66 152.412 20.08 152.508 20.248C152.58 20.416 152.76 20.656 153.048 20.968C153.36 21.256 153.732 21.52 154.164 21.76C154.62 21.976 155.088 22.084 155.568 22.084C156.648 22.084 157.512 21.832 158.16 21.328C158.808 20.8 159.324 20.104 159.708 19.24ZM181.19 13.444C181.382 13.78 181.538 14.272 181.658 14.92C181.778 15.544 181.838 16.108 181.838 16.612C181.838 17.26 181.766 17.98 181.622 18.772C181.478 19.564 181.346 20.176 181.226 20.608C179.57 23.632 177.122 25.144 173.882 25.144C172.682 25.144 171.458 24.748 170.21 23.956C168.962 23.164 168.098 22.252 167.618 21.22C166.97 19.18 166.646 17.872 166.646 17.296C166.646 16.336 166.85 15.316 167.258 14.236C167.69 13.156 168.23 12.22 168.878 11.428C169.31 10.876 170.054 10.408 171.11 10.024C172.166 9.616 173.126 9.412 173.99 9.412C175.67 9.412 177.086 9.736 178.238 10.384C179.414 11.008 180.398 12.028 181.19 13.444ZM178.058 19.24C178.178 19 178.238 18.196 178.238 16.828C178.238 16.132 178.106 15.448 177.842 14.776C177.602 14.104 177.242 13.528 176.762 13.048C176.714 13 176.582 12.928 176.366 12.832C176.15 12.712 175.85 12.604 175.466 12.508C175.106 12.388 174.686 12.328 174.206 12.328C172.862 12.328 171.878 12.868 171.254 13.948C170.63 15.028 170.318 16.252 170.318 17.62C170.318 17.836 170.39 18.28 170.534 18.952C170.678 19.624 170.786 20.056 170.858 20.248C171.05 20.584 171.434 20.98 172.01 21.436C172.61 21.868 173.258 22.084 173.954 22.084C175.034 22.084 175.886 21.832 176.51 21.328C177.158 20.8 177.674 20.104 178.058 19.24ZM188.059 25.144C187.579 25.144 187.171 25.06 186.835 24.892C186.499 24.724 186.295 24.544 186.223 24.352C185.959 23.392 185.827 22.132 185.827 20.572C185.827 17.692 185.875 15.352 185.971 13.552C186.067 11.416 186.115 9.364 186.115 7.396C186.115 6.82 186.043 5.98 185.899 4.876C185.875 4.684 185.839 4.336 185.791 3.832C185.743 3.328 185.719 2.86 185.719 2.428C185.719 1.9 185.899 1.48 186.259 1.168C186.643 0.855999 187.135 0.7 187.735 0.7C188.215 0.7 188.599 0.855999 188.887 1.168C189.199 1.456 189.355 1.852 189.355 2.356C189.355 3.124 189.379 4.204 189.427 5.596C189.475 6.892 189.499 7.864 189.499 8.512C189.499 9.232 189.475 10.192 189.427 11.392C189.379 12.112 189.355 12.64 189.355 12.976C189.355 14.032 189.367 14.908 189.391 15.604C190.279 14.716 191.443 13.672 192.883 12.472C194.323 11.272 195.439 10.432 196.231 9.952C197.071 9.448 197.623 9.196 197.887 9.196C198.391 9.196 198.823 9.304 199.183 9.52C199.543 9.736 199.723 10.048 199.723 10.456C199.723 10.864 199.663 11.188 199.543 11.428C199.423 11.668 199.207 11.908 198.895 12.148L194.251 15.532C194.779 15.796 195.223 16.132 195.583 16.54C195.967 16.948 196.351 17.452 196.735 18.052C197.551 19.396 198.199 20.38 198.679 21.004C199.183 21.628 199.639 21.94 200.047 21.94L200.947 21.904C201.115 21.904 201.259 22 201.379 22.192C201.523 22.384 201.595 22.66 201.595 23.02C201.595 23.572 201.319 24.016 200.767 24.352C200.239 24.688 199.639 24.856 198.967 24.856C198.031 24.856 197.203 24.496 196.483 23.776C195.763 23.032 195.079 22.036 194.431 20.788C193.495 19.012 192.571 17.956 191.659 17.62L189.355 19.492L189.499 23.416C189.499 24.04 189.331 24.484 188.995 24.748C188.683 25.012 188.371 25.144 188.059 25.144Z" fill="#474BCA"/>
</svg>
